<svg width="1152" height="173" xmlns="http://www.w3.org/2000/svg" xmlns:xlink="http://www.w3.org/1999/xlink" overflow="hidden"><defs><clipPath id="clip0"><rect x="0" y="0" width="1152" height="173"/></clipPath></defs><g clip-path="url(#clip0)"><rect x="0" y="0" width="1152" height="173.167" fill="#FFFFFF"/><path d="M-3 48.0467C-3 37.5429 5.50677 29.028 16.0004 29.028L194 29.028C204.493 29.028 213 37.5429 213 48.0467L213 124.119C213 134.623 204.493 143.138 194 143.138L16.0004 143.138C5.50677 143.138-3 134.623-3 124.119Z" fill="#F2465C" fill-rule="evenodd"/><text font-family="Calibri,Calibri_MSFontService,sans-serif" font-weight="400" font-size="29" transform="matrix(1 0 0 1.00096 65.459 96)">Design</text><path d="M232 48.0466C232 37.5429 240.507 29.028 251 29.028L430 29.028C440.493 29.028 449 37.5429 449 48.0466L449 124.119C449 134.623 440.493 143.138 430 143.138L251 143.138C240.507 143.138 232 134.623 232 124.119Z" fill="#FFC14A" fill-rule="evenodd"/><text font-family="Calibri,Calibri_MSFontService,sans-serif" font-weight="400" font-size="29" transform="matrix(1 0 0 1.00096 282.27 96)">Prototype</text><path d="M468 48.0467C468 37.5429 476.507 29.028 487 29.028L665 29.028C675.493 29.028 684 37.5429 684 48.0467L684 124.119C684 134.623 675.493 143.138 665 143.138L487 143.138C476.507 143.138 468 134.623 468 124.119Z" fill="#2ECABF" fill-rule="evenodd"/><text font-family="Calibri,Calibri_MSFontService,sans-serif" font-weight="400" font-size="29" transform="matrix(1 0 0 1.00096 546.333 96)">Build</text><path d="M703 48.0466C703 37.5429 711.507 29.028 722 29.028L901 29.028C911.493 29.028 920 37.5429 920 48.0466L920 124.119C920 134.623 911.493 143.138 901 143.138L722 143.138C711.507 143.138 703 134.623 703 124.119Z" fill="#4D81BD" fill-rule="evenodd"/><text font-family="Calibri,Calibri_MSFontService,sans-serif" font-weight="400" font-size="29" transform="matrix(1 0 0 1.00096 746.927 96)">Strengthen</text><path d="M939 48.0467C939 37.5429 947.507 29.028 958 29.028L1136 29.028C1146.49 29.028 1155 37.5429 1155 48.0467L1155 124.119C1155 134.623 1146.49 143.138 1136 143.138L958 143.138C947.507 143.138 939 134.623 939 124.119Z" fill="#B761DE" fill-rule="evenodd"/><text font-family="Calibri,Calibri_MSFontService,sans-serif" font-weight="400" font-size="29" transform="matrix(1 0 0 1.00096 1006.28 96)">Deploy</text><path d="M0.495667-1.93761 3.54739-1.15693 6.74925 1.15139 9.62666 4.64539 12.3812 9.17064 14.9563 14.7071 17.3759 21.0745 19.6541 28.352 21.7983 36.3615 23.7503 45.051 25.5111 54.3582 27.0187 64.0946 28.3384 74.3376 30.2203 95.7289 30.848 117.824 30.2205 139.91 28.5273 161.295 27.2702 171.541 25.8255 181.277 24.1289 190.577 22.3045 199.258 20.2867 207.266 18.1358 214.541 15.8444 220.906 13.4034 226.431 10.8455 230.956 9.77587 232.32 6.62844 229.852 7.60494 228.607 7.43752 228.857 9.87267 224.548 9.78443 224.724 12.1571 219.354 12.1047 219.485 14.3526 213.241 14.3164 213.352 16.4394 206.171 16.4179 206.249 18.416 198.32 18.3981 198.397 20.2089 189.78 20.1986 189.833 21.8845 180.592 21.8737 180.657 23.3098 170.979 23.303 171.029 24.5518 160.851 24.5431 160.937 26.229 139.645 26.2236 139.746 26.848 117.767 26.848 117.881 26.2236 95.9019 26.2305 96.0203 24.3573 74.7284 24.366 74.8087 23.0547 64.631 23.0619 64.6814 21.5633 55.0033 21.5747 55.069 19.8263 45.8279 19.8401 45.8945 17.9045 37.2778 17.9239 37.3567 15.8009 29.4268 15.8242 29.5071 13.5764 22.3265 13.6155 22.4395 11.2428 16.1955 11.2989 16.3285 8.80132 10.9587 8.90637 11.1551 6.2839 6.84679 6.44843 7.07831 3.82596 3.89389 4.20022 4.24482 1.51531 2.30919 2.18924 2.62444-0.495667 1.93761ZM8.20216 231.086 14.8917 233.779 1.6 235.604 8.11482 223.875Z" transform="matrix(1.83697e-16 1.00096 1 -1.83874e-16 106 143.138)"/><path d="M0.495667-1.93761 3.54739-1.15693 6.74925 1.15139 9.62666 4.64539 12.3812 9.17064 14.9563 14.7071 17.3759 21.0745 19.6541 28.352 21.7983 36.3615 23.7503 45.051 25.5111 54.3582 27.0187 64.0946 28.3384 74.3376 30.2203 95.7289 30.848 117.824 30.2205 139.91 28.5273 161.295 27.2702 171.541 25.8255 181.277 24.1289 190.577 22.3045 199.258 20.2867 207.266 18.1358 214.541 15.8444 220.906 13.4034 226.431 10.8455 230.956 9.77587 232.32 6.62844 229.852 7.60494 228.607 7.43752 228.857 9.87267 224.548 9.78443 224.724 12.1571 219.354 12.1047 219.485 14.3526 213.241 14.3164 213.352 16.4394 206.171 16.4179 206.249 18.416 198.32 18.3981 198.397 20.2089 189.78 20.1986 189.833 21.8845 180.592 21.8737 180.657 23.3098 170.979 23.303 171.029 24.5518 160.851 24.5431 160.937 26.229 139.645 26.2236 139.746 26.848 117.767 26.848 117.881 26.2236 95.9019 26.2305 96.0203 24.3573 74.7284 24.366 74.8087 23.0547 64.631 23.0619 64.6814 21.5633 55.0033 21.5747 55.069 19.8263 45.8279 19.8401 45.8945 17.9045 37.2778 17.9239 37.3567 15.8009 29.4268 15.8242 29.5071 13.5764 22.3265 13.6155 22.4395 11.2428 16.1955 11.2989 16.3285 8.80132 10.9587 8.90637 11.1551 6.2839 6.84679 6.44843 7.07831 3.82596 3.89389 4.20022 4.24482 1.51531 2.30919 2.18924 2.62444-0.495667 1.93761ZM8.20216 231.086 14.8917 233.779 1.6 235.604 8.11482 223.875Z" transform="matrix(1.83697e-16 1.00096 1 -1.83874e-16 341 143.138)"/><path d="M0.495667-1.93761 3.54739-1.15693 6.74925 1.15139 9.62666 4.64539 12.3812 9.17064 14.9563 14.7071 17.3759 21.0745 19.6541 28.352 21.7983 36.3615 23.7503 45.051 25.5111 54.3582 27.0187 64.0946 28.3384 74.3376 30.2203 95.7289 30.848 117.824 30.2205 139.91 28.5273 161.295 27.2702 171.541 25.8255 181.277 24.1289 190.577 22.3045 199.258 20.2867 207.266 18.1358 214.541 15.8444 220.906 13.4034 226.431 10.8455 230.956 9.77587 232.32 6.62844 229.852 7.60494 228.607 7.43752 228.857 9.87267 224.548 9.78443 224.724 12.1571 219.354 12.1047 219.485 14.3526 213.241 14.3164 213.352 16.4394 206.171 16.4179 206.249 18.416 198.32 18.3981 198.397 20.2089 189.78 20.1986 189.833 21.8845 180.592 21.8737 180.657 23.3098 170.979 23.303 171.029 24.5518 160.851 24.5431 160.937 26.229 139.645 26.2236 139.746 26.848 117.767 26.848 117.881 26.2236 95.9019 26.2305 96.0203 24.3573 74.7284 24.366 74.8087 23.0547 64.631 23.0619 64.6814 21.5633 55.0033 21.5747 55.069 19.8263 45.8279 19.8401 45.8945 17.9045 37.2778 17.9239 37.3567 15.8009 29.4268 15.8242 29.5071 13.5764 22.3265 13.6155 22.4395 11.2428 16.1955 11.2989 16.3285 8.80132 10.9587 8.90637 11.1551 6.2839 6.84679 6.44843 7.07831 3.82596 3.89389 4.20022 4.24482 1.51531 2.30919 2.18924 2.62444-0.495667 1.93761ZM8.20216 231.086 14.8917 233.779 1.6 235.604 8.11482 223.875Z" transform="matrix(1.83697e-16 1.00096 1 -1.83874e-16 577 143.138)"/><path d="M0.495667-1.93761 3.54739-1.15693 6.74925 1.15139 9.62666 4.64539 12.3812 9.17064 14.9563 14.7071 17.3759 21.0745 19.6541 28.352 21.7983 36.3615 23.7503 45.051 25.5111 54.3582 27.0187 64.0946 28.3384 74.3376 30.2203 95.7289 30.848 117.824 30.2205 139.91 28.5273 161.295 27.2702 171.541 25.8255 181.277 24.1289 190.577 22.3045 199.258 20.2867 207.266 18.1358 214.541 15.8444 220.906 13.4034 226.431 10.8455 230.956 9.77587 232.32 6.62844 229.852 7.60494 228.607 7.43752 228.857 9.87267 224.548 9.78443 224.724 12.1571 219.354 12.1047 219.485 14.3526 213.241 14.3164 213.352 16.4394 206.171 16.4179 206.249 18.416 198.32 18.3981 198.397 20.2089 189.78 20.1986 189.833 21.8845 180.592 21.8737 180.657 23.3098 170.979 23.303 171.029 24.5518 160.851 24.5431 160.937 26.229 139.645 26.2236 139.746 26.848 117.767 26.848 117.881 26.2236 95.9019 26.2305 96.0203 24.3573 74.7284 24.366 74.8087 23.0547 64.631 23.0619 64.6814 21.5633 55.0033 21.5747 55.069 19.8263 45.8279 19.8401 45.8945 17.9045 37.2778 17.9239 37.3567 15.8009 29.4268 15.8242 29.5071 13.5764 22.3265 13.6155 22.4395 11.2428 16.1955 11.2989 16.3285 8.80132 10.9587 8.90637 11.1551 6.2839 6.84679 6.44843 7.07831 3.82596 3.89389 4.20022 4.24482 1.51531 2.30919 2.18924 2.62444-0.495667 1.93761ZM8.20216 231.086 14.8917 233.779 1.6 235.604 8.11482 223.875Z" transform="matrix(1.83697e-16 1.00096 1 -1.83874e-16 812 143.138)"/><path d="M0.495667-1.93761 3.54739-1.15693 6.74925 1.15139 9.62666 4.64539 12.3812 9.17064 14.9563 14.7071 17.3759 21.0745 19.6541 28.352 21.7983 36.3615 23.7503 45.051 25.5111 54.3582 27.0187 64.0946 28.3384 74.3376 30.2203 95.7289 30.848 117.824 30.2205 139.91 28.5273 161.295 27.2702 171.541 25.8255 181.277 24.1289 190.577 22.3045 199.258 20.2867 207.266 18.1358 214.541 15.8444 220.906 13.4034 226.431 10.8455 230.956 9.77587 232.32 6.62844 229.852 7.60494 228.607 7.43752 228.857 9.87267 224.548 9.78443 224.724 12.1571 219.354 12.1047 219.485 14.3526 213.241 14.3164 213.352 16.4394 206.171 16.4179 206.249 18.416 198.32 18.3981 198.397 20.2089 189.78 20.1986 189.833 21.8845 180.592 21.8737 180.657 23.3098 170.979 23.303 171.029 24.5518 160.851 24.5431 160.937 26.229 139.645 26.2236 139.746 26.848 117.767 26.848 117.881 26.2236 95.9019 26.2305 96.0203 24.3573 74.7284 24.366 74.8087 23.0547 64.631 23.0619 64.6814 21.5633 55.0033 21.5747 55.069 19.8263 45.8279 19.8401 45.8945 17.9045 37.2778 17.9239 37.3567 15.8009 29.4268 15.8242 29.5071 13.5764 22.3265 13.6155 22.4395 11.2428 16.1955 11.2989 16.3285 8.80132 10.9587 8.90637 11.1551 6.2839 6.84679 6.44843 7.07831 3.82596 3.89389 4.20022 4.24482 1.51531 2.30919 2.18924 2.62444-0.495667 1.93761ZM8.20216 231.086 14.8917 233.779 1.6 235.604 8.11482 223.875Z" transform="matrix(-1.83697e-16 -1.00096 -1 1.83874e-16 1047.6 30.6295)"/><path d="M0.495667-1.93761 3.54739-1.15693 6.74925 1.15139 9.62666 4.64539 12.3812 9.17064 14.9563 14.7071 17.3759 21.0745 19.6541 28.352 21.7983 36.3615 23.7503 45.051 25.5111 54.3582 27.0187 64.0946 28.3384 74.3376 30.2203 95.7289 30.848 117.824 30.2205 139.91 28.5273 161.295 27.2702 171.541 25.8255 181.277 24.1289 190.577 22.3045 199.258 20.2867 207.266 18.1358 214.541 15.8444 220.906 13.4034 226.431 10.8455 230.956 9.77587 232.32 6.62844 229.852 7.60494 228.607 7.43752 228.857 9.87267 224.548 9.78443 224.724 12.1571 219.354 12.1047 219.485 14.3526 213.241 14.3164 213.352 16.4394 206.171 16.4179 206.249 18.416 198.32 18.3981 198.397 20.2089 189.78 20.1986 189.833 21.8845 180.592 21.8737 180.657 23.3098 170.979 23.303 171.029 24.5518 160.851 24.5431 160.937 26.229 139.645 26.2236 139.746 26.848 117.767 26.848 117.881 26.2236 95.9019 26.2305 96.0203 24.3573 74.7284 24.366 74.8087 23.0547 64.631 23.0619 64.6814 21.5633 55.0033 21.5747 55.069 19.8263 45.8279 19.8401 45.8945 17.9045 37.2778 17.9239 37.3567 15.8009 29.4268 15.8242 29.5071 13.5764 22.3265 13.6155 22.4395 11.2428 16.1955 11.2989 16.3285 8.80132 10.9587 8.90637 11.1551 6.2839 6.84679 6.44843 7.07831 3.82596 3.89389 4.20022 4.24482 1.51531 2.30919 2.18924 2.62444-0.495667 1.93761ZM8.20216 231.086 14.8917 233.779 1.6 235.604 8.11482 223.875Z" transform="matrix(-1.83697e-16 -1.00096 -1 1.83874e-16 812.604 30.6295)"/><path d="M0.495667-1.93761 3.54739-1.15693 6.74925 1.15139 9.62666 4.64539 12.3812 9.17064 14.9563 14.7071 17.3759 21.0745 19.6541 28.352 21.7983 36.3615 23.7503 45.051 25.5111 54.3582 27.0187 64.0946 28.3384 74.3376 30.2203 95.7289 30.848 117.824 30.2205 139.91 28.5273 161.295 27.2702 171.541 25.8255 181.277 24.1289 190.577 22.3045 199.258 20.2867 207.266 18.1358 214.541 15.8444 220.906 13.4034 226.431 10.8455 230.956 9.77587 232.32 6.62844 229.852 7.60494 228.607 7.43752 228.857 9.87267 224.548 9.78443 224.724 12.1571 219.354 12.1047 219.485 14.3526 213.241 14.3164 213.352 16.4394 206.171 16.4179 206.249 18.416 198.32 18.3981 198.397 20.2089 189.78 20.1986 189.833 21.8845 180.592 21.8737 180.657 23.3098 170.979 23.303 171.029 24.5518 160.851 24.5431 160.937 26.229 139.645 26.2236 139.746 26.848 117.767 26.848 117.881 26.2236 95.9019 26.2305 96.0203 24.3573 74.7284 24.366 74.8087 23.0547 64.631 23.0619 64.6814 21.5633 55.0033 21.5747 55.069 19.8263 45.8279 19.8401 45.8945 17.9045 37.2778 17.9239 37.3567 15.8009 29.4268 15.8242 29.5071 13.5764 22.3265 13.6155 22.4395 11.2428 16.1955 11.2989 16.3285 8.80132 10.9587 8.90637 11.1551 6.2839 6.84679 6.44843 7.07831 3.82596 3.89389 4.20022 4.24482 1.51531 2.30919 2.18924 2.62444-0.495667 1.93761ZM8.20216 231.086 14.8917 233.779 1.6 235.604 8.11482 223.875Z" transform="matrix(-1.83697e-16 -1.00096 -1 1.83874e-16 576.604 30.6295)"/><path d="M0.495667-1.93761 3.54739-1.15693 6.74925 1.15139 9.62666 4.64539 12.3812 9.17064 14.9563 14.7071 17.3759 21.0745 19.6541 28.352 21.7983 36.3615 23.7503 45.051 25.5111 54.3582 27.0187 64.0946 28.3384 74.3376 30.2203 95.7289 30.848 117.824 30.2205 139.91 28.5273 161.295 27.2702 171.541 25.8255 181.277 24.1289 190.577 22.3045 199.258 20.2867 207.266 18.1358 214.541 15.8444 220.906 13.4034 226.431 10.8455 230.956 9.77587 232.32 6.62844 229.852 7.60494 228.607 7.43752 228.857 9.87267 224.548 9.78443 224.724 12.1571 219.354 12.1047 219.485 14.3526 213.241 14.3164 213.352 16.4394 206.171 16.4179 206.249 18.416 198.32 18.3981 198.397 20.2089 189.78 20.1986 189.833 21.8845 180.592 21.8737 180.657 23.3098 170.979 23.303 171.029 24.5518 160.851 24.5431 160.937 26.229 139.645 26.2236 139.746 26.848 117.767 26.848 117.881 26.2236 95.9019 26.2305 96.0203 24.3573 74.7284 24.366 74.8087 23.0547 64.631 23.0619 64.6814 21.5633 55.0033 21.5747 55.069 19.8263 45.8279 19.8401 45.8945 17.9045 37.2778 17.9239 37.3567 15.8009 29.4268 15.8242 29.5071 13.5764 22.3265 13.6155 22.4395 11.2428 16.1955 11.2989 16.3285 8.80132 10.9587 8.90637 11.1551 6.2839 6.84679 6.44843 7.07831 3.82596 3.89389 4.20022 4.24482 1.51531 2.30919 2.18924 2.62444-0.495667 1.93761ZM8.20216 231.086 14.8917 233.779 1.6 235.604 8.11482 223.875Z" transform="matrix(-1.83697e-16 -1.00096 -1 1.83874e-16 341.604 30.6295)"/></g></svg>