<svg width="3396" height="1121" xmlns="http://www.w3.org/2000/svg" xmlns:xlink="http://www.w3.org/1999/xlink" xml:space="preserve" overflow="hidden"><defs><clipPath id="clip0"><rect x="461" y="540" width="3396" height="1121"/></clipPath></defs><g clip-path="url(#clip0)" transform="translate(-461 -540)"><path d="M3094 732.834C3094 704.759 3116.76 682 3144.83 682L3801.17 682C3829.24 682 3852 704.759 3852 732.834L3852 936.166C3852 964.241 3829.24 987 3801.17 987L3144.83 987C3116.76 987 3094 964.241 3094 936.166Z" stroke="#000000" stroke-width="10.3125" stroke-miterlimit="8" fill="none" fill-rule="evenodd"/><text font-family="Calibri,Calibri_MSFontService,sans-serif" font-weight="700" font-size="92" transform="matrix(1 0 0 1 3248.35 865)">Leaflet</text><text font-family="Calibri,Calibri_MSFontService,sans-serif" font-weight="700" font-size="92" transform="matrix(1 0 0 1 3529.08 865)">ma</text><text font-family="Calibri,Calibri_MSFontService,sans-serif" font-weight="700" font-size="92" transform="matrix(1 0 0 1 3648.82 865)">p</text><text font-family="Consolas,Consolas_MSFontService,sans-serif" font-weight="400" font-size="83" transform="matrix(1 0 0 1 3127.39 643)">o</text><text font-family="Consolas,Consolas_MSFontService,sans-serif" font-weight="400" font-size="83" transform="matrix(1 0 0 1 3172.65 643)">utput$exp_map</text><path d="M468 617.834C468 589.759 490.759 567 518.834 567L1174.17 567C1202.24 567 1225 589.759 1225 617.834L1225 821.166C1225 849.241 1202.24 872 1174.17 872L518.834 872C490.759 872 468 849.241 468 821.166Z" stroke="#000000" stroke-width="10.3125" stroke-miterlimit="8" fill="none" fill-rule="evenodd"/><text font-family="Calibri,Calibri_MSFontService,sans-serif" font-weight="700" font-size="92" transform="matrix(1 0 0 1 687.616 696)">Variable </text><text font-family="Calibri,Calibri_MSFontService,sans-serif" font-weight="700" font-size="92" transform="matrix(1 0 0 1 675.287 806)">selection</text><path d="M466 1009.83C466 981.759 488.759 959 516.834 959L1173.17 959C1201.24 959 1224 981.759 1224 1009.83L1224 1213.17C1224 1241.24 1201.24 1264 1173.17 1264L516.834 1264C488.759 1264 466 1241.24 466 1213.17Z" stroke="#000000" stroke-width="10.3125" stroke-miterlimit="8" fill="none" fill-rule="evenodd"/><text font-family="Calibri,Calibri_MSFontService,sans-serif" font-weight="700" font-size="92" transform="matrix(1 0 0 1 613.846 1088)">Aggregation </text><text font-family="Calibri,Calibri_MSFontService,sans-serif" font-weight="700" font-size="92" transform="matrix(1 0 0 1 754.784 1198)">level</text><path d="M468 1401.83C468 1373.76 490.759 1351 518.834 1351L1174.17 1351C1202.24 1351 1225 1373.76 1225 1401.83L1225 1605.17C1225 1633.24 1202.24 1656 1174.17 1656L518.834 1656C490.759 1656 468 1633.24 468 1605.17Z" stroke="#000000" stroke-width="10.3125" stroke-miterlimit="8" fill="none" fill-rule="evenodd"/><text font-family="Calibri,Calibri_MSFontService,sans-serif" font-weight="700" font-size="92" transform="matrix(1 0 0 1 710.521 1535)">Palette</text><path d="M1814 1009.83C1814 981.759 1836.76 959 1864.83 959L2313.17 959C2341.24 959 2364 981.759 2364 1009.83L2364 1213.17C2364 1241.24 2341.24 1264 2313.17 1264L1864.83 1264C1836.76 1264 1814 1241.24 1814 1213.17Z" stroke="#000000" stroke-width="10.3125" stroke-miterlimit="8" fill="none" fill-rule="evenodd"/><text font-family="Consolas,Consolas_MSFontService,sans-serif" font-weight="700" font-size="92" transform="matrix(1 0 0 1 1887.31 1143)">p</text><text font-family="Consolas,Consolas_MSFontService,sans-serif" font-weight="700" font-size="92" transform="matrix(1 0 0 1 1937.72 1143)">arams</text><text font-family="Consolas,Consolas_MSFontService,sans-serif" font-weight="700" font-size="92" transform="matrix(1 0 0 1 2189.81 1143)">(</text><text font-family="Consolas,Consolas_MSFontService,sans-serif" font-weight="700" font-size="92" transform="matrix(1 0 0 1 2240.22 1143)">)</text><path d="M3094 1274C3094 1245.83 3116.83 1223 3145 1223L3801 1223C3829.17 1223 3852 1245.83 3852 1274L3852 1478C3852 1506.17 3829.17 1529 3801 1529L3145 1529C3116.83 1529 3094 1506.17 3094 1478Z" stroke="#000000" stroke-width="10.3125" stroke-miterlimit="8" fill="none" fill-rule="evenodd"/><text font-family="Calibri,Calibri_MSFontService,sans-serif" font-weight="700" font-size="92" transform="matrix(1 0 0 1 3224.29 1407)">Leaflet</text><text font-family="Calibri,Calibri_MSFontService,sans-serif" font-weight="700" font-size="92" transform="matrix(1 0 0 1 3505.02 1407)">proxy</text><text font-family="Consolas,Consolas_MSFontService,sans-serif" font-weight="400" font-size="83" transform="matrix(1 0 0 1 3127.39 1185)">observe</text><text font-family="Consolas,Consolas_MSFontService,sans-serif" font-weight="400" font-size="83" transform="matrix(1 0 0 1 3444.22 1185)">()</text><path d="M2.0758-6.55414 54.5089 10.0522 50.3573 23.1605-2.0758 6.55414ZM93.8337 22.507 146.267 39.1134 142.115 52.2217 89.6821 35.6153ZM185.592 51.5682 238.025 68.1746 233.873 81.2828 181.44 64.6765ZM277.349 80.6294 329.783 97.2357 325.631 110.344 273.198 93.7376ZM369.107 109.691 421.54 126.297 417.389 139.405 364.956 122.799ZM460.865 138.752 513.298 155.358 509.147 168.466 456.714 151.86ZM552.623 167.813 605.056 184.419 600.905 197.527 548.472 180.921ZM644.381 196.874 696.814 213.48 692.663 226.589 640.229 209.982ZM697.324 199.219 730.422 231.336 684.869 238.544Z" fill="#00B0F0" transform="matrix(1 0 0 -1 2364 1065.34)"/><text font-family="Arial,Arial_MSFontService,sans-serif" font-weight="400" font-size="83" transform="matrix(0.953845 -0.3003 0.3003 0.953845 2545.21 962)">o</text><text font-family="Arial,Arial_MSFontService,sans-serif" font-weight="400" font-size="83" transform="matrix(0.953845 -0.3003 0.3003 0.953845 2588.93 948)">nly</text><text font-family="Arial,Arial_MSFontService,sans-serif" font-weight="400" font-size="83" transform="matrix(0.953845 -0.3003 0.3003 0.953845 2711.34 909)">once</text><text font-family="Arial,Arial_MSFontService,sans-serif" font-weight="400" font-size="83" transform="matrix(0.953845 -0.3003 0.3003 0.953845 2881.84 856)">!</text><path d="M2365.88 1162.39 3063.23 1360.28 3059.47 1373.51 2362.12 1175.61ZM3060.37 1345.18 3094.42 1376.28 3049.11 1384.86Z" fill="#00B0F0"/><text font-family="Arial,Arial_MSFontService,sans-serif" font-weight="400" font-size="83" transform="matrix(0.960061 0.279792 -0.279792 0.960061 2525.76 1167)">every</text><text font-family="Arial,Arial_MSFontService,sans-serif" font-weight="400" font-size="83" transform="matrix(0.960061 0.279792 -0.279792 0.960061 2741.37 1230)">time</text><path d="M1228 713.816 1785.64 984.747 1779.63 997.114 1222 726.184ZM1785.46 969.375 1813.55 1005.95 1767.44 1006.48Z" fill="#00B0F0"/><path d="M0.00150171-6.875 555.462-6.75367 555.459 6.99633-0.00150171 6.875ZM548.591-20.5052 589.836 0.128839 548.582 20.7448Z" fill="#00B0F0" transform="matrix(1 0 0 -1 1224 1112.13)"/><path d="M3.05417-6.15936 558.956 269.489 552.848 281.808-3.05417 6.15936ZM558.906 254.117 586.699 290.92 540.581 291.073Z" fill="#00B0F0" transform="matrix(1 0 0 -1 1225 1503.92)"/></g></svg>